<svg width="907" height="806" viewBox="0 0 907 806" fill="none" xmlns="http://www.w3.org/2000/svg">
<rect width="907" height="806" fill="white"/>
<path fill-rule="evenodd" clip-rule="evenodd" d="M540.36 111.001C552.788 105.413 562.863 111.929 562.863 125.556V328.025L673.773 356.606C678.801 357.902 682.544 362.147 683.235 367.341C683.927 372.535 681.43 377.64 676.922 380.249L596.921 426.539C592.368 429.174 588.92 433.364 587.21 438.339L556.983 526.324C555.28 531.279 550.774 534.703 545.589 534.982C540.405 535.26 535.576 532.337 533.382 527.591L485.177 423.35L325.265 495.253C312.837 500.841 302.762 494.325 302.762 480.698V242.508C302.762 228.881 312.837 213.304 325.265 207.716L540.36 111.001ZM485.177 423.35L436.033 317.079C433.948 312.57 434.627 307.245 437.779 303.408C440.93 299.57 445.987 297.907 450.764 299.138L562.863 328.025V363.746C562.863 377.373 552.788 392.95 540.36 398.538L485.177 423.35ZM518.132 290.922C524.683 289.985 531.553 282.684 532.556 274.856C535.186 254.338 533.179 235.394 526.632 220.003C518.582 201.076 504.104 188.553 485.393 184.331C466.681 180.108 444.754 184.416 422.932 196.602C401.111 208.788 380.584 228.189 364.459 251.865C348.335 275.542 337.492 302.205 333.573 327.817C329.653 353.429 332.87 376.594 342.737 393.804C352.604 411.014 368.583 421.332 388.255 423.195C404.222 424.708 421.916 420.583 439.531 411.362C446.333 407.801 450.727 398.65 449.457 391.877C448.181 385.075 441.668 383.285 434.824 386.562C422.518 392.454 410.251 395.033 399.098 393.976C384.214 392.567 372.123 384.76 364.657 371.737C357.192 358.715 354.757 341.188 357.723 321.809C360.689 302.43 368.893 282.255 381.093 264.34C393.294 246.425 408.826 231.746 425.337 222.525C441.848 213.305 458.439 210.045 472.597 213.24C486.755 216.435 497.71 225.91 503.801 240.232C508.4 251.043 510.038 264.171 508.657 278.418C507.91 286.122 511.62 291.853 518.132 290.922ZM488.531 270.015C489.394 276.689 483.633 284.672 477.152 287.067C470.682 289.458 466.02 285.232 464.236 279.195C463.493 276.681 462.434 274.403 461.074 272.423C457.749 267.582 452.776 264.737 446.802 264.256C440.828 263.776 434.13 265.683 427.58 269.729C421.03 273.775 414.932 279.774 410.08 286.942C405.227 294.111 401.846 302.118 400.375 309.92C398.905 317.723 399.414 324.959 401.836 330.688C404.258 336.416 408.48 340.37 413.954 342.036C416.138 342.7 418.481 342.988 420.929 342.905C427.05 342.697 432.521 345.845 432.518 353.024C432.514 360.203 427.147 368.569 420.747 369.937C413.61 371.462 406.798 371.319 400.707 369.466C391.332 366.613 384.099 359.84 379.951 350.029C375.803 340.218 374.931 327.824 377.45 314.46C379.968 301.096 385.76 287.382 394.071 275.104C402.382 262.826 412.826 252.553 424.045 245.622C435.263 238.692 446.736 235.425 456.968 236.248C467.2 237.071 475.717 241.945 481.411 250.236C485.141 255.666 487.546 262.397 488.531 270.015Z" fill="black"/>
<path d="M240.159 581.593H167.195V600.609H193.495V676H213.86V600.609H240.159V581.593ZM297.176 603.172L295.153 610.05C288.814 604.52 280.587 601.149 271.147 601.149C249.298 601.149 232.979 617.602 232.979 639.586C232.979 661.569 249.298 678.158 271.147 678.158C280.452 678.158 288.544 674.921 294.748 669.392L296.502 676H311.877V603.172H297.176ZM272.765 659.546C261.301 659.546 252.94 650.915 252.94 639.586C252.94 628.122 261.301 619.625 272.765 619.625C284.229 619.625 292.591 628.122 292.591 639.586C292.591 651.05 284.229 659.546 272.765 659.546ZM351.99 678.158C370.467 678.158 382.605 668.447 382.605 653.612C382.605 635.81 367.365 633.382 355.497 631.224C347.944 629.875 341.74 628.662 341.74 623.806C341.74 619.625 345.382 616.928 351.451 616.928C358.329 616.928 362.375 619.76 362.51 625.56H381.256C381.121 610.994 369.523 601.149 351.99 601.149C334.457 601.149 322.724 610.724 322.724 624.481C322.724 641.609 337.559 644.711 349.158 646.734C356.845 647.948 363.184 649.431 363.184 654.421C363.184 659.276 358.194 661.839 352.799 661.839C345.786 661.839 340.796 658.602 340.661 652.128H321.51C321.51 667.638 333.783 678.158 351.99 678.158ZM461.016 676L433.638 637.967L458.318 603.172H435.661L413.812 635.54V577.007H394.121V676H413.812V641.204L437.144 676H461.016ZM499.213 677.618C516.476 677.618 530.367 667.234 534.818 651.184H523.219C518.768 660.895 509.867 666.559 499.213 666.559C484.377 666.559 473.048 654.826 473.048 639.586C473.048 624.481 484.242 612.747 499.213 612.747C510.002 612.747 519.038 618.412 523.219 627.852H534.683C530.232 611.938 516.61 601.688 499.213 601.688C477.634 601.688 461.315 617.872 461.315 639.586C461.315 661.299 477.634 677.618 499.213 677.618ZM578.935 677.618C600.918 677.618 617.507 661.434 617.507 639.586C617.507 617.872 600.918 601.688 578.935 601.688C556.817 601.688 540.228 617.737 540.228 639.586C540.228 661.434 556.817 677.618 578.935 677.618ZM578.935 666.559C563.29 666.559 551.961 655.23 551.961 639.586C551.961 624.076 563.29 612.747 578.935 612.747C594.445 612.747 605.774 624.076 605.774 639.721C605.774 655.23 594.445 666.559 578.935 666.559ZM679.486 603.172L655.345 661.165L630.529 603.172H618.661L650.085 676H660.605L691.219 603.172H679.486ZM766.562 639.99C766.562 618.681 751.996 601.688 729.878 601.688C708.704 601.688 692.789 618.007 692.789 639.586C692.789 661.299 708.704 677.618 729.878 677.618C745.657 677.618 758.47 668.852 764.674 653.882H752.536C748.085 661.704 739.993 666.424 729.878 666.424C716.121 666.424 706.006 657.523 704.253 644.036H766.292C766.427 642.688 766.562 641.339 766.562 639.99ZM729.878 612.477C742.825 612.477 752.67 620.57 755.098 633.517H704.523C706.816 620.839 716.661 612.477 729.878 612.477ZM812.26 602.902C801.74 602.902 794.187 606.813 788.928 614.366L787.174 603.172H778.947V676H790.411V636.484C790.411 622.323 797.964 613.691 811.316 613.691H818.733V602.902H812.26Z" fill="black"/>
</svg>
